<?xml version="1.0" encoding="utf-8"?>
<!-- Generator: Adobe Illustrator 27.5.0, SVG Export Plug-In . SVG Version: 6.00 Build 0)  -->
<svg version="1.1" xmlns="http://www.w3.org/2000/svg" xmlns:xlink="http://www.w3.org/1999/xlink" x="0px" y="0px"
	 viewBox="0 0 500 500" style="enable-background:new 0 0 500 500;" xml:space="preserve">
<g id="BACKGROUND">
	
		<!-- <radialGradient id="XMLID_00000103262360649868229260000006899454514471071111_" cx="250" cy="250" r="757" gradientUnits="userSpaceOnUse">
		<stop  offset="0" style="stop-color:#FDFDFD"/>
		<stop  offset="0.2104" style="stop-color:#F7F6F6"/>
		<stop  offset="0.5068" style="stop-color:#E4E4E4"/>
		<stop  offset="0.8529" style="stop-color:#C7C6C6"/>
		<stop  offset="1" style="stop-color:#B8B7B7"/>
	</radialGradient> -->
	<rect id="XMLID_3_" style="fill:url(#XMLID_00000103262360649868229260000006899454514471071111_);" width="500" height="500"/>
</g>
<g id="OBJECTS">
	<g id="XMLID_1351_">
		<g id="XMLID_1117_">
			<g id="XMLID_1120_">
				<path id="XMLID_1121_" style="fill:#E0AC89;" d="M384.746,322.548c-2.481-0.584-5.891-0.221-8.211,0.536
					c0,0-1.321-2.25-1.581-4.392c-1.166,0.417-2.188,0.965-2.615,1.674c-1.262,2.099-0.678,5.937-0.678,5.937
					c2.436,0.159,5.736,1.089,7.823,2.553c0.212,0.149,0.396,0.332,0.567,0.529c1.612-0.311,3.947-0.811,5.775-1.408
					C388.922,326.966,387.252,323.138,384.746,322.548z"/>
			</g>
			<g id="XMLID_1118_">
				<path id="XMLID_1119_" style="fill:#E0AC89;" d="M382.717,325.026c-2.481-0.584-5.891-0.221-8.211,0.536
					c0,0-1.968-3.347-1.576-5.764c0.005-0.032,0.021-0.064,0.028-0.096c-0.263,0.204-0.476,0.425-0.62,0.665
					c-1.262,2.099-0.678,5.937-0.678,5.937c2.436,0.159,5.736,1.089,7.823,2.553c0.779,0.546,1.278,1.461,1.446,2.385
					c0.983-0.233,1.985-0.498,2.868-0.786C386.894,329.444,385.224,325.616,382.717,325.026z"/>
			</g>
			<path id="XMLID_1116_" style="fill:#EAB892;" d="M379.483,328.856c-2.087-1.464-5.387-2.394-7.823-2.553
				c0,0-0.584-3.839,0.678-5.937c0.785-1.305,3.586-2.069,5.591-2.461c-1.853-0.475-3.484-0.703-4.317-0.495
				c-2.444,0.611-7.942,3.869-8.553,4.989c-0.611,1.12-0.509,7.331-0.509,7.331s3.462,1.12,4.276,1.425
				c0.539,0.202,2.502,1.032,3.77,2.307c1.612,0.31,3.957,0.711,5.87,0.836c0.163,0.011,0.312,0.003,0.459-0.008
				c0.546-0.45,1.173-0.862,1.855-1.256C381.336,331.733,380.792,329.775,379.483,328.856z"/>
			<g id="XMLID_16_">
				
					<rect id="XMLID_1144_" x="352.551" y="322.282" transform="matrix(0.9347 -0.3555 0.3555 0.9347 -95.9715 154.3036)" style="fill:#B9D687;" width="38.64" height="32.011"/>
				<path id="XMLID_1143_" style="fill:#9CB56D;" d="M359.503,360.116c-0.887,0.337-1.333,1.33-0.995,2.217
					c0.337,0.887,1.33,1.333,2.217,0.995l31.985-12.166l-1.222-3.212L359.503,360.116z"/>
				<path id="XMLID_1142_" style="fill:#9CB56D;" d="M347.128,332.413l10.77,28.314l0.611,1.606
					c-0.337-0.887,0.108-1.88,0.995-2.217l-11.38-29.92C347.236,330.534,346.79,331.526,347.128,332.413z"/>
				<path id="XMLID_1138_" style="fill:#82A05F;" d="M349.484,333.776l29.049-11.049c0.741,1.91,2.885,2.868,4.804,2.138
					l6.013,15.809c-1.926,0.733-2.893,2.888-2.161,4.814l-29.048,11.049l0.314,0.826l33.361-12.689l-9.285-24.413L349.17,332.95
					L349.484,333.776z"/>
				<g id="XMLID_1126_">
					<path id="XMLID_1128_" style="fill:#6A824A;" d="M358.456,357.363l-0.314-0.826l-0.241,0.092
						c-0.507,0.193-0.916,0.529-1.204,0.944l0.451,1.185c0.101-0.573,0.486-1.081,1.067-1.303L358.456,357.363z"/>
					<path id="XMLID_1127_" style="fill:#6A824A;" d="M347.726,333.985l0.451,1.185c0.101-0.573,0.486-1.081,1.068-1.303
						l0.241-0.091l-0.314-0.826l-0.241,0.092C348.423,333.234,348.013,333.57,347.726,333.985z"/>
				</g>
				<path id="XMLID_1125_" style="fill:#6A824A;" d="M355.601,354.691c0.566-0.075,1.132-0.204,1.693-0.383l-6.962-18.305
					c-0.538,0.239-1.046,0.519-1.519,0.839L355.601,354.691z"/>
				<path id="XMLID_1124_" style="fill:#82A05F;" d="M350.827,335.786c-0.17,0.065-0.331,0.144-0.495,0.218l6.962,18.305
					c0.172-0.055,0.344-0.102,0.514-0.167c5.069-1.928,7.615-7.6,5.687-12.669C361.568,336.405,355.896,333.858,350.827,335.786z"/>
				<path id="XMLID_1123_" style="fill:#82A05F;" d="M376.529,336.516c0.689,1.812-0.221,3.84-2.033,4.53
					c-1.812,0.689-3.84-0.221-4.53-2.033c-0.689-1.812,0.221-3.84,2.033-4.53C373.811,333.794,375.839,334.704,376.529,336.516z"/>
				<path id="XMLID_1122_" style="fill:#6A824A;" d="M358.425,361.448l30.41-11.566l-0.306-0.805l-29.025,11.04
					C358.91,360.342,358.521,360.863,358.425,361.448z"/>
			</g>
			<path id="XMLID_1135_" style="fill:#F7CBA4;" d="M411.183,297.861c-2.444,0.102-37.265,6.618-40.421,7.433
				c-3.156,0.814-14.153,10.793-14.865,11.811c-0.424,0.606,0.097,5.315,0.76,9.846l8.078-3.04c0.076-0.69,0.18-1.245,0.325-1.512
				c0.611-1.12,6.109-4.378,8.553-4.989c2.371-0.593,11.2,2.342,13.236,4.48c2.036,2.138,3.767,5.396,0,7.84
				c-3.767,2.444-8.451,3.665-9.673,6.822c-1.222,3.156,0.509,5.905,2.953,6.211c2.444,0.305,5.804-2.953,10.691-4.684
				c4.887-1.731,12.829-3.869,16.087-9.164c3.258-5.294,4.48-9.164,6.72-9.265c2.24-0.102,19.345,0.815,19.345,0.815v-22.603
				C432.972,297.861,413.627,297.759,411.183,297.861z"/>
			<rect id="XMLID_1048_" x="414.645" y="295.01" style="fill:#F7F7F7;" width="12.218" height="28.101"/>
			<rect id="XMLID_1433_" x="414.645" y="308.71" style="fill:#DEE0E0;" width="12.218" height="14.402"/>
			<rect id="XMLID_1046_" x="421.263" y="293.381" style="fill:#426170;" width="26.676" height="30.657"/>
			<rect id="XMLID_1427_" x="421.238" y="309.636" style="fill:#36525B;" width="26.701" height="14.402"/>
		</g>
		<polygon id="XMLID_1129_" style="fill:#9E7852;" points="408.377,454.413 331.326,454.413 331.326,390.429 341.333,372.676 
			398.37,372.676 408.45,390.429 		"/>
		<polygon id="XMLID_1130_" style="fill:#B7936C;" points="408.45,390.429 331.326,390.429 341.333,372.676 398.444,372.676 		"/>
		<rect id="XMLID_1137_" x="338.327" y="436.66" style="fill:#826346;" width="63.05" height="10.753"/>
		<path id="XMLID_1131_" style="fill:#9E7852;" d="M386.222,382.939h-32.668c-0.961,0-1.63-0.953-1.304-1.857l0,0
			c0.198-0.549,0.72-0.916,1.304-0.916h32.668c0.584,0,1.106,0.366,1.304,0.916l0,0
			C387.852,381.986,387.183,382.939,386.222,382.939z"/>
		<path id="XMLID_1360_" style="fill:#826346;" d="M353.555,381.169h32.668c0.574,0,1.084,0.356,1.29,0.89
			c0.118-0.298,0.135-0.641,0.014-0.977c-0.198-0.549-0.72-0.916-1.304-0.916h-32.668c-0.584,0-1.106,0.366-1.304,0.916
			c-0.121,0.336-0.104,0.679,0.014,0.977C352.47,381.525,352.98,381.169,353.555,381.169z"/>
		
			<rect id="XMLID_1133_" x="344.859" y="390.896" transform="matrix(-1.836970e-16 1 -1 -1.836970e-16 792.2728 52.5697)" style="opacity:0.17;fill:#EBFBFF;" width="49.984" height="63.05"/>
		<g id="XMLID_1255_">
			<defs>
				
					<rect id="XMLID_1242_" x="344.859" y="390.896" transform="matrix(-1.836970e-16 1 -1 -1.836970e-16 792.2728 52.5697)" width="49.984" height="63.05"/>
			</defs>
			<clipPath id="XMLID_00000122703514018666529140000005854834757371770019_">
				<use xlink:href="#XMLID_1242_"  style="overflow:visible;"/>
			</clipPath>
			<g id="XMLID_1132_" style="clip-path:url(#XMLID_00000122703514018666529140000005854834757371770019_);">
				<circle id="XMLID_1203_" style="fill:#F5D483;" cx="397.883" cy="437.708" r="6.77"/>
				<path id="XMLID_1202_" style="fill:#FFE7B3;" d="M404.653,437.708c0-0.374-0.032-0.741-0.09-1.099l-7.405,7.83
					c0.238,0.025,0.48,0.039,0.724,0.039c0.315,0,0.625-0.023,0.929-0.065l5.798-5.942
					C404.637,438.22,404.653,437.966,404.653,437.708z"/>
				<g id="XMLID_1199_">
					<path id="XMLID_1201_" style="fill:#FFE7B3;" d="M397.883,430.938c-0.473,0-0.934,0.049-1.379,0.141l-5.328,5.714
						c-0.04,0.299-0.063,0.605-0.063,0.915c0,0.757,0.126,1.484,0.355,2.164l7.208-8.886
						C398.416,430.955,398.151,430.938,397.883,430.938z"/>
					<path id="XMLID_1200_" style="fill:#FFE7B3;" d="M403.274,433.613c-0.207-0.272-0.435-0.528-0.68-0.765l-9.049,10.057
						c0.247,0.206,0.508,0.395,0.783,0.564L403.274,433.613z"/>
				</g>
				<path id="XMLID_1198_" style="fill:#FFE7B3;" d="M403.72,437.839c0,3.151-2.555,5.706-5.706,5.706
					c-3.151,0-5.706-2.555-5.706-5.706c0-3.151,2.555-5.706,5.706-5.706C401.166,432.133,403.72,434.688,403.72,437.839z"/>
				<path id="XMLID_1197_" style="fill:#DEA82A;" d="M403.457,437.708c0,3.079-2.496,5.575-5.575,5.575
					c-3.079,0-5.575-2.496-5.575-5.575c0-3.079,2.496-5.574,5.575-5.574C400.962,432.133,403.457,434.629,403.457,437.708z"/>
				<circle id="XMLID_1196_" style="fill:#CE9729;" cx="398.014" cy="437.839" r="4.701"/>
				<path id="XMLID_1195_" style="fill:#F5D483;" d="M402.584,437.708c0,2.596-2.105,4.701-4.701,4.701
					c-2.596,0-4.701-2.105-4.701-4.701c0-2.596,2.105-4.701,4.701-4.701C400.479,433.007,402.584,435.112,402.584,437.708z"/>
				<path id="XMLID_1194_" style="fill:#F5D483;" d="M402.584,437.708c0,2.596-2.105,4.701-4.701,4.701
					c-2.596,0-4.701-2.105-4.701-4.701c0-2.596,2.105-4.701,4.701-4.701C400.479,433.007,402.584,435.112,402.584,437.708z"/>
				<path id="XMLID_1193_" style="fill:#FFE7B3;" d="M393.465,437.935c0-2.596,2.105-4.701,4.701-4.701
					c1.042,0,2.004,0.34,2.784,0.913c-0.823-0.71-1.895-1.14-3.067-1.14c-2.596,0-4.701,2.105-4.701,4.701
					c0,1.554,0.755,2.932,1.917,3.788C394.099,440.634,393.465,439.358,393.465,437.935z"/>
				<path id="XMLID_1192_" style="fill:#FFE7B3;" d="M395.248,441.601l6.561-6.479c-0.219-0.332-0.479-0.635-0.773-0.901
					l-6.821,6.425C394.509,441.014,394.857,441.336,395.248,441.601z"/>
				<polygon id="XMLID_1189_" style="fill:#FFE7B3;" points="398.815,437.122 398.947,437.207 398.815,437.625 398.483,437.54 				
					"/>
				<polygon id="XMLID_1186_" style="fill:#FFE7B3;" points="395.723,440.344 395.854,440.429 396.257,440.105 396.088,439.978 				
					"/>
			</g>
			<g id="XMLID_1136_" style="clip-path:url(#XMLID_00000122703514018666529140000005854834757371770019_);">
				<path id="XMLID_1210_" style="fill:#F5D483;" d="M394.308,441.776c0,3.739-3.031,6.77-6.77,6.77s-6.77-3.031-6.77-6.77
					c0-3.739,3.031-6.77,6.77-6.77S394.308,438.037,394.308,441.776z"/>
				<path id="XMLID_1209_" style="fill:#FFE7B3;" d="M394.308,441.776c0-0.374-0.032-0.741-0.09-1.099l-7.405,7.83
					c0.238,0.025,0.48,0.039,0.724,0.039c0.315,0,0.625-0.023,0.929-0.065l5.798-5.942
					C394.292,442.289,394.308,442.034,394.308,441.776z"/>
				<g id="XMLID_1206_">
					<path id="XMLID_1208_" style="fill:#FFE7B3;" d="M387.538,435.006c-0.473,0-0.934,0.049-1.379,0.141l-5.328,5.714
						c-0.04,0.299-0.063,0.605-0.063,0.915c0,0.757,0.126,1.484,0.355,2.164l7.208-8.886
						C388.071,435.023,387.806,435.006,387.538,435.006z"/>
					<path id="XMLID_1207_" style="fill:#FFE7B3;" d="M392.929,437.682c-0.207-0.272-0.435-0.528-0.68-0.765l-9.049,10.057
						c0.246,0.206,0.508,0.395,0.783,0.564L392.929,437.682z"/>
				</g>
				<path id="XMLID_1205_" style="fill:#FFE7B3;" d="M393.375,441.908c0,3.151-2.555,5.706-5.706,5.706
					c-3.151,0-5.706-2.555-5.706-5.706c0-3.151,2.555-5.706,5.706-5.706C390.821,436.202,393.375,438.756,393.375,441.908z"/>
				<path id="XMLID_1204_" style="fill:#DEA82A;" d="M393.112,441.776c0,3.079-2.496,5.575-5.574,5.575
					c-3.079,0-5.575-2.496-5.575-5.575c0-3.079,2.496-5.574,5.575-5.574C390.617,436.202,393.112,438.697,393.112,441.776z"/>
				<path id="XMLID_1191_" style="fill:#CE9729;" d="M392.37,441.908c0,2.596-2.105,4.701-4.701,4.701
					c-2.596,0-4.701-2.105-4.701-4.701c0-2.596,2.105-4.701,4.701-4.701C390.266,437.207,392.37,439.311,392.37,441.908z"/>
				<path id="XMLID_1190_" style="fill:#F5D483;" d="M392.239,441.776c0,2.596-2.105,4.701-4.701,4.701
					c-2.596,0-4.701-2.105-4.701-4.701c0-2.596,2.105-4.701,4.701-4.701C390.134,437.075,392.239,439.18,392.239,441.776z"/>
				<path id="XMLID_1188_" style="fill:#F5D483;" d="M392.239,441.776c0,2.596-2.105,4.701-4.701,4.701
					c-2.596,0-4.701-2.105-4.701-4.701c0-2.596,2.105-4.701,4.701-4.701C390.134,437.075,392.239,439.18,392.239,441.776z"/>
				<path id="XMLID_1187_" style="fill:#FFE7B3;" d="M383.12,442.003c0-2.596,2.105-4.701,4.701-4.701
					c1.042,0,2.004,0.34,2.784,0.913c-0.823-0.71-1.895-1.14-3.067-1.14c-2.596,0-4.701,2.105-4.701,4.701
					c0,1.554,0.755,2.932,1.917,3.788C383.754,444.702,383.12,443.427,383.12,442.003z"/>
				<path id="XMLID_1141_" style="fill:#FFE7B3;" d="M384.903,445.669l6.561-6.479c-0.219-0.332-0.479-0.635-0.773-0.901
					l-6.821,6.425C384.164,445.082,384.512,445.405,384.903,445.669z"/>
				<polygon id="XMLID_1140_" style="fill:#FFE7B3;" points="388.47,441.19 388.602,441.275 388.47,441.693 388.138,441.608 				"/>
				<polygon id="XMLID_1139_" style="fill:#FFE7B3;" points="385.378,444.412 385.509,444.497 385.912,444.173 385.743,444.046 				
					"/>
			</g>
			<g id="XMLID_1226_" style="clip-path:url(#XMLID_00000122703514018666529140000005854834757371770019_);">
				<circle id="XMLID_1240_" style="fill:#F5D483;" cx="369.208" cy="437.447" r="6.77"/>
				<path id="XMLID_1239_" style="fill:#FFE7B3;" d="M375.979,437.447c0-0.375-0.032-0.741-0.09-1.099l-7.405,7.831
					c0.238,0.025,0.48,0.039,0.724,0.039c0.315,0,0.625-0.023,0.929-0.065l5.798-5.942
					C375.963,437.959,375.979,437.705,375.979,437.447z"/>
				<g id="XMLID_1236_">
					<path id="XMLID_1238_" style="fill:#FFE7B3;" d="M369.208,430.677c-0.473,0-0.934,0.049-1.379,0.141l-5.328,5.714
						c-0.041,0.299-0.063,0.605-0.063,0.915c0,0.757,0.126,1.484,0.355,2.164l7.208-8.886
						C369.741,430.694,369.477,430.677,369.208,430.677z"/>
					<path id="XMLID_1237_" style="fill:#FFE7B3;" d="M374.599,433.352c-0.207-0.272-0.435-0.528-0.68-0.765l-9.049,10.057
						c0.247,0.206,0.508,0.395,0.783,0.564L374.599,433.352z"/>
				</g>
				<path id="XMLID_1235_" style="fill:#FFE7B3;" d="M375.046,437.578c0,3.151-2.555,5.706-5.706,5.706
					c-3.151,0-5.706-2.555-5.706-5.706c0-3.151,2.555-5.706,5.706-5.706C372.491,431.872,375.046,434.427,375.046,437.578z"/>
				<path id="XMLID_1234_" style="fill:#DEA82A;" d="M374.783,437.447c0,3.079-2.496,5.574-5.575,5.574
					c-3.079,0-5.574-2.496-5.574-5.574s2.496-5.574,5.574-5.574C372.287,431.872,374.783,434.368,374.783,437.447z"/>
				<circle id="XMLID_1233_" style="fill:#CE9729;" cx="369.34" cy="437.578" r="4.701"/>
				<path id="XMLID_1232_" style="fill:#F5D483;" d="M373.909,437.447c0,2.596-2.105,4.701-4.701,4.701
					c-2.596,0-4.701-2.105-4.701-4.701c0-2.596,2.105-4.701,4.701-4.701C371.805,432.746,373.909,434.85,373.909,437.447z"/>
				<path id="XMLID_1231_" style="fill:#F5D483;" d="M373.909,437.447c0,2.596-2.105,4.701-4.701,4.701
					c-2.596,0-4.701-2.105-4.701-4.701c0-2.596,2.105-4.701,4.701-4.701C371.805,432.746,373.909,434.85,373.909,437.447z"/>
				<path id="XMLID_1230_" style="fill:#FFE7B3;" d="M364.791,437.674c0-2.596,2.105-4.701,4.701-4.701
					c1.042,0,2.004,0.34,2.784,0.913c-0.823-0.71-1.895-1.14-3.067-1.14c-2.596,0-4.701,2.105-4.701,4.701
					c0,1.554,0.755,2.932,1.917,3.788C365.425,440.372,364.791,439.097,364.791,437.674z"/>
				<path id="XMLID_1229_" style="fill:#FFE7B3;" d="M366.573,441.34l6.561-6.479c-0.219-0.332-0.479-0.635-0.773-0.901
					l-6.821,6.425C365.835,440.753,366.183,441.075,366.573,441.34z"/>
				<polygon id="XMLID_1228_" style="fill:#FFE7B3;" points="370.141,436.861 370.272,436.946 370.141,437.364 369.809,437.279 				
					"/>
				<polygon id="XMLID_1227_" style="fill:#FFE7B3;" points="367.048,440.082 367.18,440.168 367.582,439.844 367.414,439.717 				
					"/>
			</g>
			<g id="XMLID_1134_" style="clip-path:url(#XMLID_00000122703514018666529140000005854834757371770019_);">
				
					<rect id="XMLID_1269_" x="336.729" y="405.614" transform="matrix(0.9347 -0.3555 0.3555 0.9347 -126.4145 153.7371)" style="fill:#B9D687;" width="36.758" height="30.452"/>
				<path id="XMLID_1266_" style="fill:#9CB56D;" d="M343.343,441.605c-0.844,0.321-1.268,1.265-0.947,2.109
					c0.321,0.844,1.265,1.268,2.109,0.947l30.427-11.573l-1.162-3.056L343.343,441.605z"/>
				<path id="XMLID_1263_" style="fill:#9CB56D;" d="M331.57,415.251l10.245,26.935l0.581,1.528
					c-0.321-0.844,0.103-1.788,0.947-2.109l-10.826-28.463C331.673,413.463,331.249,414.407,331.57,415.251z"/>
				<path id="XMLID_1260_" style="fill:#82A05F;" d="M333.812,416.547l27.634-10.511c0.705,1.817,2.745,2.728,4.57,2.034
					l5.72,15.039c-1.832,0.697-2.752,2.747-2.056,4.579l-27.633,10.511l0.299,0.786l31.737-12.071l-8.833-23.224l-31.736,12.071
					L333.812,416.547z"/>
				<g id="XMLID_1253_">
					<path id="XMLID_1257_" style="fill:#6A824A;" d="M342.347,438.985l-0.299-0.786l-0.229,0.087
						c-0.482,0.183-0.872,0.503-1.145,0.898l0.429,1.127c0.096-0.545,0.462-1.029,1.016-1.239L342.347,438.985z"/>
					<path id="XMLID_1254_" style="fill:#6A824A;" d="M332.139,416.747l0.429,1.127c0.096-0.545,0.462-1.029,1.016-1.239
						l0.229-0.087l-0.299-0.786l-0.229,0.087C332.802,416.032,332.413,416.352,332.139,416.747z"/>
				</g>
				<path id="XMLID_1250_" style="fill:#6A824A;" d="M339.631,436.444c0.539-0.072,1.077-0.194,1.61-0.364l-6.623-17.413
					c-0.512,0.227-0.995,0.493-1.445,0.798L339.631,436.444z"/>
				<path id="XMLID_1247_" style="fill:#82A05F;" d="M335.089,418.46c-0.162,0.062-0.314,0.137-0.471,0.207l6.623,17.413
					c0.163-0.052,0.327-0.097,0.489-0.158c4.822-1.834,7.244-7.23,5.41-12.052C345.307,419.048,339.911,416.626,335.089,418.46z"/>
				<path id="XMLID_1244_" style="fill:#82A05F;" d="M359.539,419.154c0.656,1.724-0.21,3.653-1.934,4.309
					c-1.724,0.656-3.653-0.21-4.309-1.934c-0.656-1.724,0.21-3.653,1.934-4.309C356.954,416.564,358.883,417.43,359.539,419.154z"/>
				<path id="XMLID_1241_" style="fill:#6A824A;" d="M342.317,442.871l28.928-11.003l-0.291-0.765l-27.612,10.502
					C342.778,441.82,342.409,442.315,342.317,442.871z"/>
			</g>
			<g id="XMLID_1211_" style="clip-path:url(#XMLID_00000122703514018666529140000005854834757371770019_);">
				<path id="XMLID_1225_" style="fill:#F5D483;" d="M348.118,438.863c0,3.739-3.031,6.77-6.77,6.77c-3.739,0-6.77-3.031-6.77-6.77
					s3.031-6.77,6.77-6.77C345.087,432.093,348.118,435.124,348.118,438.863z"/>
				<path id="XMLID_1224_" style="fill:#FFE7B3;" d="M348.118,438.863c0-0.374-0.032-0.741-0.09-1.099l-7.405,7.831
					c0.238,0.025,0.48,0.039,0.724,0.039c0.315,0,0.625-0.023,0.929-0.065l5.798-5.942
					C348.102,439.376,348.118,439.121,348.118,438.863z"/>
				<g id="XMLID_1221_">
					<path id="XMLID_1223_" style="fill:#FFE7B3;" d="M341.348,432.093c-0.473,0-0.934,0.049-1.379,0.141l-5.328,5.714
						c-0.04,0.299-0.063,0.605-0.063,0.915c0,0.757,0.126,1.484,0.355,2.164l7.208-8.886
						C341.88,432.11,341.616,432.093,341.348,432.093z"/>
					<path id="XMLID_1222_" style="fill:#FFE7B3;" d="M346.739,434.769c-0.207-0.272-0.435-0.528-0.68-0.765l-9.049,10.057
						c0.247,0.206,0.508,0.395,0.783,0.564L346.739,434.769z"/>
				</g>
				<path id="XMLID_1220_" style="fill:#FFE7B3;" d="M347.185,438.995c0,3.151-2.555,5.706-5.706,5.706
					c-3.151,0-5.706-2.555-5.706-5.706c0-3.151,2.555-5.706,5.706-5.706C344.631,433.289,347.185,435.843,347.185,438.995z"/>
				<path id="XMLID_1219_" style="fill:#DEA82A;" d="M346.922,438.863c0,3.079-2.496,5.574-5.575,5.574
					c-3.079,0-5.574-2.496-5.574-5.574s2.496-5.574,5.574-5.574C344.426,433.289,346.922,435.784,346.922,438.863z"/>
				<path id="XMLID_1218_" style="fill:#CE9729;" d="M346.18,438.995c0,2.596-2.105,4.701-4.701,4.701
					c-2.596,0-4.701-2.105-4.701-4.701s2.105-4.701,4.701-4.701C344.076,434.294,346.18,436.398,346.18,438.995z"/>
				<circle id="XMLID_1217_" style="fill:#F5D483;" cx="341.348" cy="438.863" r="4.701"/>
				<circle id="XMLID_1216_" style="fill:#F5D483;" cx="341.348" cy="438.863" r="4.701"/>
				<path id="XMLID_1215_" style="fill:#FFE7B3;" d="M336.93,439.09c0-2.596,2.105-4.701,4.701-4.701
					c1.042,0,2.004,0.34,2.784,0.913c-0.823-0.71-1.895-1.14-3.067-1.14c-2.596,0-4.701,2.105-4.701,4.701
					c0,1.554,0.755,2.932,1.917,3.788C337.564,441.789,336.93,440.514,336.93,439.09z"/>
				<path id="XMLID_1214_" style="fill:#FFE7B3;" d="M338.712,442.756l6.561-6.479c-0.219-0.332-0.479-0.635-0.773-0.901
					l-6.821,6.425C337.974,442.169,338.322,442.491,338.712,442.756z"/>
				<polygon id="XMLID_1213_" style="fill:#FFE7B3;" points="342.28,438.277 342.411,438.362 342.28,438.78 341.948,438.695 				"/>
				<polygon id="XMLID_1212_" style="fill:#FFE7B3;" points="339.188,441.499 339.319,441.584 339.722,441.26 339.553,441.133 				
					"/>
			</g>
			<g id="XMLID_1243_" style="clip-path:url(#XMLID_00000122703514018666529140000005854834757371770019_);">
				<circle id="XMLID_1287_" style="fill:#F5D483;" cx="359.503" cy="439.611" r="6.77"/>
				<path id="XMLID_1286_" style="fill:#FFE7B3;" d="M366.274,439.611c0-0.375-0.032-0.741-0.09-1.099l-7.404,7.831
					c0.238,0.025,0.48,0.039,0.724,0.039c0.315,0,0.625-0.023,0.929-0.065l5.798-5.942
					C366.258,440.123,366.274,439.869,366.274,439.611z"/>
				<g id="XMLID_1283_">
					<path id="XMLID_1285_" style="fill:#FFE7B3;" d="M359.503,432.84c-0.473,0-0.934,0.049-1.379,0.141l-5.328,5.714
						c-0.04,0.299-0.063,0.605-0.063,0.915c0,0.757,0.126,1.484,0.355,2.164l7.208-8.886
						C360.036,432.858,359.772,432.84,359.503,432.84z"/>
					<path id="XMLID_1284_" style="fill:#FFE7B3;" d="M364.894,435.516c-0.207-0.272-0.435-0.528-0.68-0.765l-9.049,10.057
						c0.247,0.206,0.508,0.395,0.783,0.564L364.894,435.516z"/>
				</g>
				<path id="XMLID_1282_" style="fill:#FFE7B3;" d="M365.341,439.742c0,3.151-2.555,5.706-5.706,5.706
					c-3.151,0-5.706-2.555-5.706-5.706c0-3.151,2.555-5.706,5.706-5.706C362.786,434.036,365.341,436.591,365.341,439.742z"/>
				<path id="XMLID_1281_" style="fill:#DEA82A;" d="M365.078,439.611c0,3.079-2.496,5.574-5.574,5.574
					c-3.079,0-5.575-2.496-5.575-5.574s2.496-5.574,5.575-5.574C362.582,434.036,365.078,436.532,365.078,439.611z"/>
				<circle id="XMLID_1270_" style="fill:#CE9729;" cx="359.635" cy="439.742" r="4.701"/>
				<path id="XMLID_1252_" style="fill:#F5D483;" d="M364.204,439.611c0,2.596-2.105,4.701-4.701,4.701
					c-2.596,0-4.701-2.105-4.701-4.701c0-2.596,2.105-4.701,4.701-4.701C362.1,434.909,364.204,437.014,364.204,439.611z"/>
				<path id="XMLID_1251_" style="fill:#F5D483;" d="M364.204,439.611c0,2.596-2.105,4.701-4.701,4.701
					c-2.596,0-4.701-2.105-4.701-4.701c0-2.596,2.105-4.701,4.701-4.701C362.1,434.909,364.204,437.014,364.204,439.611z"/>
				<path id="XMLID_1249_" style="fill:#FFE7B3;" d="M355.086,439.837c0-2.596,2.105-4.701,4.701-4.701
					c1.042,0,2.004,0.34,2.784,0.913c-0.823-0.71-1.895-1.14-3.067-1.14c-2.596,0-4.701,2.105-4.701,4.701
					c0,1.554,0.755,2.932,1.917,3.788C355.72,442.536,355.086,441.261,355.086,439.837z"/>
				<path id="XMLID_1248_" style="fill:#FFE7B3;" d="M356.868,443.504l6.561-6.479c-0.219-0.332-0.479-0.635-0.773-0.901
					l-6.821,6.425C356.13,442.916,356.478,443.239,356.868,443.504z"/>
				<polygon id="XMLID_1246_" style="fill:#FFE7B3;" points="360.435,439.025 360.567,439.11 360.435,439.528 360.104,439.443 				
					"/>
				<polygon id="XMLID_1245_" style="fill:#FFE7B3;" points="357.343,442.246 357.475,442.331 357.878,442.008 357.709,441.88 				
					"/>
			</g>
		</g>
		<g id="XMLID_1148_" style="opacity:0.37;">
			<polygon id="XMLID_1182_" style="fill:#F8FEFF;" points="401.376,434.988 401.376,422.897 383.845,397.429 375.521,397.429 			
				"/>
			<polygon id="XMLID_1183_" style="fill:#F8FEFF;" points="387.908,397.429 385.551,397.429 401.376,420.418 401.376,416.994 			
				"/>
			<polygon id="XMLID_1184_" style="fill:#F8FEFF;" points="338.327,414.272 361.141,447.413 365.855,447.413 338.327,407.424 			
				"/>
			<polygon id="XMLID_1185_" style="fill:#F8FEFF;" points="386.039,447.413 394.363,447.413 359.954,397.429 351.631,397.429 			
				"/>
		</g>
		<g id="XMLID_1259_">
			<path id="XMLID_1311_" style="fill:#F5D483;" d="M445.58,383.705c0,3.739-3.031,6.77-6.77,6.77c-3.739,0-6.77-3.031-6.77-6.77
				c0-3.739,3.031-6.77,6.77-6.77C442.549,376.935,445.58,379.966,445.58,383.705z"/>
			<path id="XMLID_1310_" style="fill:#FFE7B3;" d="M445.58,383.705c0-0.375-0.032-0.741-0.09-1.099l-7.405,7.831
				c0.238,0.025,0.48,0.039,0.725,0.039c0.315,0,0.625-0.023,0.929-0.065l5.798-5.942
				C445.564,384.218,445.58,383.964,445.58,383.705z"/>
			<g id="XMLID_1307_">
				<path id="XMLID_1309_" style="fill:#FFE7B3;" d="M438.81,376.935c-0.473,0-0.934,0.049-1.379,0.141l-5.328,5.714
					c-0.04,0.299-0.063,0.605-0.063,0.915c0,0.757,0.126,1.484,0.355,2.164l7.208-8.886
					C439.342,376.953,439.078,376.935,438.81,376.935z"/>
				<path id="XMLID_1308_" style="fill:#FFE7B3;" d="M444.2,379.611c-0.207-0.272-0.434-0.528-0.68-0.765l-9.049,10.057
					c0.247,0.206,0.508,0.395,0.783,0.564L444.2,379.611z"/>
			</g>
			<path id="XMLID_1306_" style="fill:#FFE7B3;" d="M444.647,383.837c0,3.151-2.555,5.706-5.706,5.706
				c-3.151,0-5.706-2.555-5.706-5.706c0-3.151,2.555-5.706,5.706-5.706C442.092,378.131,444.647,380.685,444.647,383.837z"/>
			<path id="XMLID_1305_" style="fill:#DEA82A;" d="M444.384,383.705c0,3.079-2.496,5.574-5.574,5.574
				c-3.079,0-5.575-2.496-5.575-5.574c0-3.079,2.496-5.575,5.575-5.575C441.888,378.131,444.384,380.627,444.384,383.705z"/>
			<circle id="XMLID_1304_" style="fill:#CE9729;" cx="438.941" cy="383.837" r="4.701"/>
			<path id="XMLID_1303_" style="fill:#F5D483;" d="M443.511,383.705c0,2.596-2.105,4.701-4.701,4.701
				c-2.596,0-4.701-2.105-4.701-4.701c0-2.596,2.105-4.701,4.701-4.701C441.406,379.004,443.511,381.109,443.511,383.705z"/>
			<path id="XMLID_1302_" style="fill:#F5D483;" d="M443.511,383.705c0,2.596-2.105,4.701-4.701,4.701
				c-2.596,0-4.701-2.105-4.701-4.701c0-2.596,2.105-4.701,4.701-4.701C441.406,379.004,443.511,381.109,443.511,383.705z"/>
			<path id="XMLID_1301_" style="fill:#FFE7B3;" d="M434.392,383.932c0-2.596,2.105-4.701,4.701-4.701
				c1.042,0,2.004,0.34,2.784,0.913c-0.823-0.71-1.895-1.14-3.067-1.14c-2.596,0-4.701,2.105-4.701,4.701
				c0,1.554,0.755,2.932,1.917,3.788C435.026,386.631,434.392,385.356,434.392,383.932z"/>
			<path id="XMLID_1300_" style="fill:#FFE7B3;" d="M436.174,387.599l6.561-6.479c-0.219-0.332-0.479-0.635-0.773-0.901
				l-6.821,6.425C435.436,387.011,435.784,387.334,436.174,387.599z"/>
			<polygon id="XMLID_1299_" style="fill:#FFE7B3;" points="439.742,383.119 439.873,383.204 439.742,383.622 439.41,383.537 			"/>
			<polygon id="XMLID_1264_" style="fill:#FFE7B3;" points="436.649,386.341 436.781,386.426 437.184,386.103 437.015,385.975 			
				"/>
		</g>
		<g id="XMLID_1256_">
			
				<rect id="XMLID_1378_" x="286.904" y="388.53" transform="matrix(0.9347 -0.3555 0.3555 0.9347 -123.3692 134.5021)" style="fill:#B9D687;" width="34.779" height="28.813"/>
			<path id="XMLID_1375_" style="fill:#9CB56D;" d="M293.162,422.584c-0.798,0.304-1.2,1.197-0.896,1.996
				c0.304,0.798,1.197,1.199,1.996,0.896l28.789-10.95l-1.1-2.891L293.162,422.584z"/>
			<path id="XMLID_1372_" style="fill:#9CB56D;" d="M282.023,397.649l9.693,25.485l0.55,1.446c-0.304-0.798,0.097-1.692,0.896-1.996
				l-10.243-26.931C282.12,395.957,281.719,396.851,282.023,397.649z"/>
			<path id="XMLID_1369_" style="fill:#82A05F;" d="M284.144,398.876l26.147-9.945c0.667,1.719,2.597,2.581,4.324,1.924l5.412,14.23
				c-1.733,0.659-2.604,2.599-1.945,4.333l-26.146,9.945l0.283,0.743l30.028-11.421l-8.358-21.973l-30.028,11.421L284.144,398.876z"
				/>
			<g id="XMLID_1362_">
				<path id="XMLID_1366_" style="fill:#6A824A;" d="M292.219,420.106l-0.283-0.743l-0.217,0.083
					c-0.456,0.173-0.825,0.476-1.084,0.85l0.406,1.066c0.091-0.515,0.437-0.973,0.961-1.173L292.219,420.106z"/>
				<path id="XMLID_1363_" style="fill:#6A824A;" d="M282.561,399.064l0.406,1.066c0.091-0.515,0.437-0.973,0.961-1.172l0.217-0.082
					l-0.283-0.743l-0.217,0.082C283.189,398.388,282.82,398.691,282.561,399.064z"/>
			</g>
			<path id="XMLID_1359_" style="fill:#6A824A;" d="M289.65,417.701c0.51-0.068,1.019-0.183,1.524-0.344l-6.267-16.476
				c-0.485,0.215-0.942,0.467-1.368,0.755L289.65,417.701z"/>
			<path id="XMLID_1356_" style="fill:#82A05F;" d="M285.352,400.685c-0.153,0.058-0.297,0.13-0.446,0.196l6.267,16.476
				c0.155-0.049,0.31-0.092,0.463-0.15c4.562-1.735,6.854-6.841,5.119-11.403C295.02,401.242,289.915,398.95,285.352,400.685z"/>
			<path id="XMLID_1353_" style="fill:#82A05F;" d="M308.486,401.342c0.62,1.631-0.199,3.457-1.83,4.077s-3.457-0.199-4.077-1.83
				c-0.62-1.631,0.199-3.456,1.83-4.077C306.04,398.892,307.865,399.711,308.486,401.342z"/>
			<path id="XMLID_1350_" style="fill:#6A824A;" d="M292.191,423.782l27.371-10.411l-0.276-0.724l-26.125,9.937
				C292.628,422.788,292.278,423.256,292.191,423.782z"/>
		</g>
		<g id="XMLID_1352_">
			
				<rect id="XMLID_1411_" x="414.728" y="346.165" transform="matrix(0.9314 0.3639 -0.3639 0.9314 160.8515 -132.5329)" style="fill:#B9D687;" width="34.779" height="28.813"/>
			<path id="XMLID_1408_" style="fill:#9CB56D;" d="M410.678,367.662c-0.796-0.311-1.693,0.082-2.004,0.878
				c-0.311,0.796,0.082,1.693,0.878,2.004l28.69,11.209l1.126-2.881L410.678,367.662z"/>
			<path id="XMLID_1405_" style="fill:#9CB56D;" d="M419.16,341.703l-9.923,25.397l-0.563,1.441
				c0.311-0.796,1.208-1.189,2.004-0.878l10.486-26.837C420.368,340.514,419.471,340.907,419.16,341.703z"/>
			<path id="XMLID_1402_" style="fill:#82A05F;" d="M419.909,344.036l26.056,10.18c-0.66,1.722,0.192,3.656,1.913,4.329
				l-5.54,14.181c-1.727-0.675-3.675,0.178-4.35,1.906l-26.055-10.18l-0.289,0.741l29.924,11.692l8.556-21.897l-29.924-11.692
				L419.909,344.036z"/>
			<g id="XMLID_1395_">
				<path id="XMLID_1399_" style="fill:#6A824A;" d="M411.643,365.192l0.289-0.741l-0.216-0.084
					c-0.454-0.178-0.931-0.201-1.373-0.098l-0.415,1.063c0.414-0.321,0.977-0.428,1.499-0.224L411.643,365.192z"/>
				<path id="XMLID_1396_" style="fill:#6A824A;" d="M418.609,343.113l-0.415,1.063c0.413-0.321,0.977-0.428,1.499-0.224
					l0.216,0.084l0.29-0.741l-0.216-0.084C419.528,343.033,419.051,343.01,418.609,343.113z"/>
			</g>
			<path id="XMLID_1392_" style="fill:#6A824A;" d="M411.352,361.685c0.423,0.292,0.878,0.548,1.361,0.767l6.415-16.419
				c-0.504-0.166-1.011-0.286-1.521-0.358L411.352,361.685z"/>
			<path id="XMLID_1388_" style="fill:#82A05F;" d="M419.59,346.188c-0.153-0.06-0.308-0.103-0.462-0.154l-6.415,16.419
				c0.148,0.067,0.291,0.14,0.444,0.2c4.547,1.776,9.672-0.469,11.449-5.016C426.382,353.09,424.136,347.964,419.59,346.188z"/>
			<path id="XMLID_1358_" style="fill:#82A05F;" d="M436.295,362.204c-0.635,1.625-2.468,2.428-4.093,1.793
				c-1.626-0.635-2.428-2.468-1.793-4.093c0.635-1.626,2.468-2.428,4.093-1.793C436.128,358.746,436.93,360.579,436.295,362.204z"/>
			<path id="XMLID_1354_" style="fill:#6A824A;" d="M409.154,367.899l27.276,10.657l0.282-0.722l-26.034-10.172
				C410.145,367.454,409.571,367.566,409.154,367.899z"/>
		</g>
		<g id="XMLID_1258_">
			<circle id="XMLID_1319_" style="fill:#F5D483;" cx="323.051" cy="337.395" r="6.77"/>
			<path id="XMLID_1318_" style="fill:#FFE7B3;" d="M329.821,337.395c0-0.374-0.032-0.741-0.09-1.099l-7.405,7.831
				c0.238,0.025,0.48,0.039,0.724,0.039c0.315,0,0.625-0.023,0.929-0.065l5.798-5.942
				C329.805,337.908,329.821,337.654,329.821,337.395z"/>
			<g id="XMLID_1315_">
				<path id="XMLID_1317_" style="fill:#FFE7B3;" d="M323.051,330.625c-0.473,0-0.934,0.049-1.379,0.141l-5.328,5.714
					c-0.04,0.299-0.063,0.605-0.063,0.915c0,0.757,0.126,1.484,0.355,2.164l7.208-8.886
					C323.584,330.642,323.319,330.625,323.051,330.625z"/>
				<path id="XMLID_1316_" style="fill:#FFE7B3;" d="M328.442,333.301c-0.207-0.272-0.435-0.528-0.68-0.765l-9.049,10.057
					c0.247,0.206,0.508,0.395,0.783,0.564L328.442,333.301z"/>
			</g>
			<path id="XMLID_1314_" style="fill:#FFE7B3;" d="M328.888,337.527c0,3.151-2.555,5.706-5.706,5.706
				c-3.151,0-5.706-2.555-5.706-5.706c0-3.151,2.555-5.706,5.706-5.706C326.334,331.821,328.888,334.375,328.888,337.527z"/>
			<circle id="XMLID_1313_" style="fill:#DEA82A;" cx="323.051" cy="337.395" r="5.575"/>
			<path id="XMLID_1312_" style="fill:#CE9729;" d="M327.883,337.527c0,2.596-2.105,4.701-4.701,4.701
				c-2.596,0-4.701-2.105-4.701-4.701c0-2.596,2.105-4.701,4.701-4.701C325.779,332.826,327.883,334.931,327.883,337.527z"/>
			<circle id="XMLID_1298_" style="fill:#F5D483;" cx="323.051" cy="337.395" r="4.701"/>
			<circle id="XMLID_1297_" style="fill:#F5D483;" cx="323.051" cy="337.395" r="4.701"/>
			<path id="XMLID_1296_" style="fill:#FFE7B3;" d="M318.633,337.622c0-2.596,2.105-4.701,4.701-4.701
				c1.042,0,2.004,0.34,2.784,0.913c-0.823-0.71-1.895-1.14-3.067-1.14c-2.596,0-4.701,2.105-4.701,4.701
				c0,1.554,0.755,2.932,1.917,3.788C319.267,340.321,318.633,339.046,318.633,337.622z"/>
			<path id="XMLID_1271_" style="fill:#FFE7B3;" d="M320.416,341.289l6.561-6.479c-0.219-0.332-0.479-0.635-0.773-0.901
				l-6.821,6.425C319.677,340.701,320.025,341.024,320.416,341.289z"/>
			<polygon id="XMLID_1262_" style="fill:#FFE7B3;" points="323.983,336.809 324.115,336.894 323.983,337.312 323.651,337.227 			
				"/>
			<polygon id="XMLID_1261_" style="fill:#FFE7B3;" points="320.891,340.031 321.022,340.116 321.425,339.793 321.256,339.665 			
				"/>
		</g>
		<g id="XMLID_1320_">
			<circle id="XMLID_1334_" style="fill:#F5D483;" cx="306.382" cy="393.942" r="6.77"/>
			<path id="XMLID_1333_" style="fill:#FFE7B3;" d="M313.153,393.942c0-0.375-0.032-0.741-0.09-1.099l-7.404,7.831
				c0.238,0.025,0.48,0.039,0.724,0.039c0.315,0,0.625-0.023,0.929-0.065l5.798-5.942
				C313.137,394.455,313.153,394.201,313.153,393.942z"/>
			<g id="XMLID_1330_">
				<path id="XMLID_1332_" style="fill:#FFE7B3;" d="M306.382,387.172c-0.473,0-0.934,0.049-1.379,0.141l-5.328,5.714
					c-0.04,0.299-0.063,0.605-0.063,0.915c0,0.757,0.126,1.484,0.355,2.164l7.208-8.886
					C306.915,387.19,306.651,387.172,306.382,387.172z"/>
				<path id="XMLID_1331_" style="fill:#FFE7B3;" d="M311.773,389.848c-0.207-0.272-0.435-0.528-0.68-0.765l-9.049,10.057
					c0.247,0.206,0.508,0.395,0.783,0.564L311.773,389.848z"/>
			</g>
			<circle id="XMLID_1329_" style="fill:#FFE7B3;" cx="306.514" cy="394.074" r="5.706"/>
			<circle id="XMLID_1328_" style="fill:#DEA82A;" cx="306.382" cy="393.942" r="5.575"/>
			<circle id="XMLID_1327_" style="fill:#CE9729;" cx="306.514" cy="394.074" r="4.701"/>
			<circle id="XMLID_1326_" style="fill:#F5D483;" cx="306.382" cy="393.942" r="4.701"/>
			<circle id="XMLID_1325_" style="fill:#F5D483;" cx="306.382" cy="393.942" r="4.701"/>
			<path id="XMLID_1324_" style="fill:#FFE7B3;" d="M301.965,394.169c0-2.596,2.105-4.701,4.701-4.701
				c1.042,0,2.004,0.34,2.784,0.913c-0.823-0.71-1.895-1.14-3.067-1.14c-2.596,0-4.701,2.105-4.701,4.701
				c0,1.554,0.755,2.932,1.917,3.788C302.599,396.868,301.965,395.593,301.965,394.169z"/>
			<path id="XMLID_1323_" style="fill:#FFE7B3;" d="M303.747,397.836l6.561-6.479c-0.219-0.332-0.479-0.635-0.773-0.901
				l-6.821,6.425C303.009,397.248,303.357,397.571,303.747,397.836z"/>
			<polygon id="XMLID_1322_" style="fill:#FFE7B3;" points="307.314,393.356 307.446,393.441 307.314,393.859 306.983,393.774 			
				"/>
			<polygon id="XMLID_1321_" style="fill:#FFE7B3;" points="304.222,396.578 304.354,396.663 304.756,396.34 304.587,396.212 			"/>
		</g>
		<g id="XMLID_1335_">
			<path id="XMLID_1349_" style="fill:#F5D483;" d="M424.22,351.502c0,3.739-3.031,6.77-6.77,6.77s-6.77-3.031-6.77-6.77
				c0-3.739,3.031-6.77,6.77-6.77S424.22,347.763,424.22,351.502z"/>
			<path id="XMLID_1348_" style="fill:#FFE7B3;" d="M424.22,351.502c0-0.374-0.032-0.741-0.09-1.099l-7.404,7.831
				c0.238,0.025,0.48,0.039,0.724,0.039c0.315,0,0.625-0.023,0.929-0.065l5.798-5.942
				C424.204,352.015,424.22,351.761,424.22,351.502z"/>
			<g id="XMLID_1345_">
				<path id="XMLID_1347_" style="fill:#FFE7B3;" d="M417.45,344.732c-0.473,0-0.934,0.049-1.379,0.141l-5.328,5.714
					c-0.04,0.299-0.063,0.605-0.063,0.915c0,0.757,0.126,1.484,0.355,2.164l7.208-8.886
					C417.983,344.75,417.718,344.732,417.45,344.732z"/>
				<path id="XMLID_1346_" style="fill:#FFE7B3;" d="M422.841,347.408c-0.207-0.272-0.435-0.528-0.68-0.765l-9.049,10.057
					c0.247,0.206,0.508,0.395,0.783,0.564L422.841,347.408z"/>
			</g>
			<path id="XMLID_1344_" style="fill:#FFE7B3;" d="M423.287,351.634c0,3.151-2.555,5.706-5.706,5.706s-5.706-2.555-5.706-5.706
				c0-3.151,2.555-5.706,5.706-5.706S423.287,348.483,423.287,351.634z"/>
			<path id="XMLID_1343_" style="fill:#DEA82A;" d="M423.024,351.502c0,3.079-2.496,5.575-5.574,5.575s-5.575-2.496-5.575-5.575
				c0-3.079,2.496-5.575,5.575-5.575S423.024,348.424,423.024,351.502z"/>
			<path id="XMLID_1342_" style="fill:#CE9729;" d="M422.282,351.634c0,2.596-2.105,4.701-4.701,4.701
				c-2.596,0-4.701-2.105-4.701-4.701c0-2.596,2.105-4.701,4.701-4.701C420.178,346.933,422.282,349.038,422.282,351.634z"/>
			<circle id="XMLID_1341_" style="fill:#F5D483;" cx="417.45" cy="351.502" r="4.701"/>
			<circle id="XMLID_1340_" style="fill:#F5D483;" cx="417.45" cy="351.502" r="4.701"/>
			<path id="XMLID_1339_" style="fill:#FFE7B3;" d="M413.032,351.729c0-2.596,2.105-4.701,4.701-4.701
				c1.042,0,2.004,0.34,2.784,0.913c-0.823-0.71-1.895-1.14-3.067-1.14c-2.596,0-4.701,2.105-4.701,4.701
				c0,1.554,0.755,2.932,1.917,3.788C413.666,354.428,413.032,353.153,413.032,351.729z"/>
			<path id="XMLID_1338_" style="fill:#FFE7B3;" d="M414.814,355.396l6.561-6.479c-0.219-0.332-0.479-0.635-0.773-0.901
				l-6.821,6.425C414.076,354.808,414.424,355.131,414.814,355.396z"/>
			<polygon id="XMLID_1337_" style="fill:#FFE7B3;" points="418.382,350.916 418.513,351.001 418.382,351.419 418.05,351.335 			"/>
			<polygon id="XMLID_1336_" style="fill:#FFE7B3;" points="415.29,354.138 415.421,354.223 415.824,353.9 415.655,353.772 			"/>
		</g>
	</g>
	<g id="XMLID_1459_">
		<g id="XMLID_1437_">
			<path id="XMLID_1491_" style="fill:#EAB892;" d="M166.359,57.715c0,0-9.649-6.198-15.129-8.144
				c-2.583-0.917-8.573-0.584-14.825-0.845c-7.01-0.293-10.191-1.313-10.958-0.687c-1.928,1.576-1.182,5.822,2.036,7.488
				c3.218,1.666,11.689,1.677,12.697,2.46c1.007,0.783-0.169,3.156-3.393,4.94c-2.295,1.269-6,3.32-9.783,5.689l15.304,27.67
				c0.944-0.413,21.9-10.431,27.617-13.593c0,0,20.686-3.785,27.198-5.855l-12.972-23.453
				C184.151,53.384,171.895,58.379,166.359,57.715z"/>
			<path id="XMLID_1490_" style="fill:#F7CBA4;" d="M127.003,68.615c0,0-19.833,14.578-20.955,15.423
				c-1.674,1.26-0.426,5.979,2.979,5.387l22.361-12.881L127.003,68.615z"/>
			<polygon id="XMLID_1487_" style="fill:#EAB892;" points="128.642,78.126 130.869,75.604 109.028,89.425 			"/>
			<path id="XMLID_1486_" style="fill:#F7CBA4;" d="M130.869,75.604c0,0-22.947,16.367-24.069,17.211
				c-1.674,1.26-0.426,5.978,2.979,5.387l25.475-14.669L130.869,75.604z"/>
			<path id="XMLID_1483_" style="fill:#EAB892;" d="M133.622,84.472c-0.086-0.52,1.112-1.88,1.112-1.88l-22.768,14.35
				L133.622,84.472z"/>
			<path id="XMLID_1482_" style="fill:#F7CBA4;" d="M134.734,82.592c0,0-19.833,14.578-20.955,15.423
				c-1.674,1.26-0.426,5.979,2.979,5.387l22.361-12.881L134.734,82.592z"/>
			<polygon id="XMLID_1479_" style="fill:#EAB892;" points="119.171,102.012 136.556,91.998 138.599,89.581 119.171,102.012 			"/>
			<path id="XMLID_1478_" style="fill:#F7CBA4;" d="M138.599,89.581c0,0-18.31,12.532-19.433,13.376
				c-1.674,1.26-0.426,5.979,2.98,5.387l20.162-12.059L138.599,89.581z"/>
			
				<rect id="XMLID_1473_" x="177.788" y="51.472" transform="matrix(0.98 -0.1992 0.1992 0.98 -9.7111 38.167)" style="fill:#DEE0E0;" width="13.993" height="31.726"/>
			
				<rect id="XMLID_1472_" x="179.109" y="64.606" transform="matrix(0.98 -0.1992 0.1992 0.98 -10.9798 38.5607)" style="fill:#CECECE;" width="13.993" height="18.459"/>
			
				<rect id="XMLID_1455_" x="184.588" y="48.1" transform="matrix(0.98 -0.1992 0.1992 0.98 -9.1312 40.0355)" style="fill:#36525B;" width="19.543" height="34.575"/>
			
				<rect id="XMLID_1452_" x="185.852" y="60.655" transform="matrix(0.9799 -0.1992 0.1992 0.9799 -10.344 40.4128)" style="fill:#2F4549;" width="19.543" height="21.894"/>
		</g>
		<path id="XMLID_1422_" style="fill:#E0AC89;" d="M104.571,133.903l8.598-5.739c0,0,1.509-0.902,1.594-1.492
			c0.084-0.591-0.759-2.447-3.375-2.869c-2.616-0.422-7.763,4.725-11.277,6.919c-1.428,0.891-3.274,1.737-4.964,2.427
			C98.566,133.773,101.707,133.85,104.571,133.903z"/>
		<path id="XMLID_1412_" style="fill:#E0AC89;" d="M108.453,134.021c0.374,0.022,0.819-0.016,1.314-0.097l9.319-6.221
			c0,0,1.509-0.902,1.594-1.492c0.084-0.591-0.759-2.447-3.375-2.869c-2.616-0.422-7.763,4.725-11.277,6.919
			c-2.173,1.357-5.316,2.608-7.398,3.365C102.254,133.968,105.529,133.849,108.453,134.021z"/>
		<path id="XMLID_1393_" style="fill:#EAB892;" d="M108.453,134.021c3.893,0.229,15.035-5.652,19.373-6.776l0.001,0
			c0,0,1.509-0.902,1.594-1.493c0.084-0.591-0.759-2.447-3.375-2.869s-7.763,4.725-11.277,6.919
			c-3.514,2.194-9.565,4.112-9.565,4.112l0.001,0C106.33,133.936,107.414,133.96,108.453,134.021z"/>
		<g id="XMLID_1357_">
			<polygon id="XMLID_1390_" style="fill:#9E7852;" points="150.424,127.101 82.262,127.101 82.262,70.498 91.114,54.793 
				141.572,54.793 150.489,70.498 			"/>
			<polygon id="XMLID_1355_" style="fill:#B7936C;" points="150.489,70.498 82.262,70.498 91.114,54.793 141.637,54.793 			"/>
			<polygon id="XMLID_1423_" style="fill:#9E7852;" points="86.803,62.442 145.948,62.442 145.292,61.278 87.459,61.278 			"/>
		</g>
		<path id="XMLID_1424_" style="fill:#F7CBA4;" d="M41.752,136.679c0,0,20.63,0.633,24.934,0c4.303-0.633,2.658-5.316,8.733-10.252
			c6.075-4.936,8.607-8.986,8.733-15.188c0,0,1.519-2.405,4.683-0.633c3.164,1.772,2.152,9.629,0.633,12.851
			c-1.519,3.223-2.025,7.906,3.797,9.298c5.822,1.392,10.885,1.012,15.188,1.266c4.303,0.253,17.466-6.961,20.504-6.961
			s3.671,2.531,3.417,3.67c-0.253,1.139-8.353,5.822-13.036,8.353c-4.683,2.531-15.188,6.961-18.605,8.48s-25.82,5.569-28.604,6.202
			c-2.784,0.633-30.376,3.797-30.376,3.797V136.679z"/>
		<g id="XMLID_1361_">
			<path id="XMLID_1432_" style="fill:#F7CBA4;" d="M170.12,84.522c0,0-5.444-10.094-9.297-14.449
				c-1.816-2.053-7.219-4.661-12.564-7.915c-5.992-3.649-8.283-6.082-9.257-5.905c-2.45,0.445-3.853,4.523-1.843,7.538
				c2.01,3.015,9.417,7.125,9.92,8.298c0.502,1.173-1.675,2.68-5.36,2.68c-2.622,0-6.857,0.001-11.314,0.243v31.62
				c1.026,0.095,24.213,1.472,30.746,1.472c0,0,19.934,6.7,26.634,8.04V89.343C187.785,89.343,174.643,87.782,170.12,84.522z"/>
			<path id="XMLID_1430_" style="fill:#F7CBA4;" d="M130.405,75.012c0,0-24.411,3.158-25.802,3.354
				c-2.074,0.292-3.266,5.025,0,6.156l25.802-0.449V75.012z"/>
			<polygon id="XMLID_1447_" style="fill:#EAB892;" points="127.236,84.128 130.405,82.998 104.603,84.522 			"/>
			<path id="XMLID_1431_" style="fill:#F7CBA4;" d="M130.405,82.998c0,0-28.002,3.216-29.393,3.411
				c-2.074,0.292-3.266,5.025,0,6.156l29.393-0.507V82.998z"/>
			<path id="XMLID_1449_" style="fill:#EAB892;" d="M128.522,92.092c0.177-0.497,1.883-1.107,1.883-1.107l-26.869,1.538
				L128.522,92.092z"/>
			<path id="XMLID_1434_" style="fill:#F7CBA4;" d="M130.405,90.984c0,0-24.411,3.158-25.802,3.354
				c-2.074,0.292-3.266,5.025,0,6.156l25.802-0.449V90.984z"/>
			<polygon id="XMLID_1450_" style="fill:#EAB892;" points="107.387,100.446 127.448,100.097 130.405,98.971 107.387,100.446 			"/>
			<path id="XMLID_1435_" style="fill:#F7CBA4;" d="M130.405,98.971c0,0-22.088,2.104-23.479,2.3c-2.075,0.292-3.266,5.025,0,6.156
				l23.479-0.794V98.971z"/>
			
				<rect id="XMLID_1436_" x="174.591" y="85.995" transform="matrix(0.954 0.2999 -0.2999 0.954 38.9113 -49.7751)" style="fill:#F7F7F7;" width="13.993" height="31.726"/>
			
				<rect id="XMLID_1461_" x="170.368" y="101.189" transform="matrix(0.2999 -0.954 0.954 0.2999 22.5243 247.0643)" style="fill:#DEE0E0;" width="18.459" height="13.993"/>
			
				<rect id="XMLID_1451_" x="181.137" y="87.501" transform="matrix(0.954 0.2999 -0.2999 0.954 40.22 -52.4365)" style="fill:#426170;" width="19.543" height="34.575"/>
			
				<rect id="XMLID_1456_" x="178.06" y="101.066" transform="matrix(0.2999 -0.954 0.954 0.2999 26.5832 257.8982)" style="fill:#36525B;" width="21.894" height="19.543"/>
		</g>
		<g id="XMLID_1439_">
			<g id="XMLID_1506_">
				<path id="XMLID_1508_" style="fill:#E04F64;" d="M62.207,65.771h11.677c2.042,0,3.697,1.655,3.697,3.697v4.59
					c0,2.042-1.655,3.697-3.697,3.697h-4.031c0.258,1.11,0.572,2.363,0.572,2.363l-3.994-2.363h-4.224
					c-2.042,0-3.697-1.655-3.697-3.697v-4.59C58.51,67.427,60.165,65.771,62.207,65.771z"/>
			</g>
			<g id="XMLID_1442_">
				<path id="XMLID_1505_" style="fill:#4F8DC6;" d="M61.051,57.112H46.567c-2.533,0-4.586,2.053-4.586,4.586v5.694
					c0,2.533,2.053,4.586,4.586,4.586h5c-0.32,1.377-0.71,2.931-0.71,2.931l4.955-2.931h5.239c2.533,0,4.586-2.053,4.586-4.586
					v-5.694C65.638,59.165,63.584,57.112,61.051,57.112z"/>
				<g id="XMLID_1454_">
					<path id="XMLID_1453_" style="fill:#FFFFFF;" d="M50.701,64.858c0,0.507-0.411,0.918-0.918,0.918s-0.918-0.411-0.918-0.918
						c0-0.507,0.411-0.917,0.918-0.917S50.701,64.352,50.701,64.858z"/>
					<path id="XMLID_1457_" style="fill:#FFFFFF;" d="M54.727,64.858c0,0.507-0.411,0.918-0.918,0.918
						c-0.507,0-0.918-0.411-0.918-0.918c0-0.507,0.411-0.917,0.918-0.917C54.316,63.941,54.727,64.352,54.727,64.858z"/>
					<path id="XMLID_1458_" style="fill:#FFFFFF;" d="M58.753,64.858c0,0.507-0.411,0.918-0.918,0.918
						c-0.507,0-0.918-0.411-0.918-0.918c0-0.507,0.411-0.917,0.918-0.917C58.342,63.941,58.753,64.352,58.753,64.858z"/>
				</g>
			</g>
		</g>
		<g id="XMLID_1460_">
			<g id="XMLID_1509_">
				<path id="XMLID_1510_" style="fill:#E04F64;" d="M169.97,142.303h11.677c2.042,0,3.697,1.655,3.697,3.697v4.59
					c0,2.042-1.655,3.697-3.697,3.697h-4.031c0.258,1.11,0.572,2.363,0.572,2.363l-3.995-2.363h-4.224
					c-2.042,0-3.697-1.655-3.697-3.697V146C166.273,143.958,167.928,142.303,169.97,142.303z"/>
			</g>
			<g id="XMLID_1463_">
				<path id="XMLID_1507_" style="fill:#4F8DC6;" d="M168.815,133.643H154.33c-2.533,0-4.586,2.053-4.586,4.586v5.694
					c0,2.533,2.053,4.586,4.586,4.586h5c-0.321,1.377-0.71,2.931-0.71,2.931l4.955-2.931h5.239c2.533,0,4.586-2.053,4.586-4.586
					v-5.694C173.401,135.697,171.347,133.643,168.815,133.643z"/>
				<g id="XMLID_1488_">
					<path id="XMLID_1504_" style="fill:#FFFFFF;" d="M158.464,141.39c0,0.507-0.411,0.918-0.918,0.918s-0.918-0.411-0.918-0.918
						c0-0.507,0.411-0.917,0.918-0.917S158.464,140.883,158.464,141.39z"/>
					<path id="XMLID_1503_" style="fill:#FFFFFF;" d="M162.49,141.39c0,0.507-0.411,0.918-0.917,0.918
						c-0.507,0-0.918-0.411-0.918-0.918c0-0.507,0.411-0.917,0.918-0.917C162.079,140.472,162.49,140.883,162.49,141.39z"/>
					<path id="XMLID_1501_" style="fill:#FFFFFF;" d="M166.516,141.39c0,0.507-0.411,0.918-0.918,0.918
						c-0.507,0-0.918-0.411-0.918-0.918c0-0.507,0.411-0.917,0.918-0.917C166.105,140.472,166.516,140.883,166.516,141.39z"/>
				</g>
			</g>
		</g>
	</g>
	<g id="XMLID_1535_">
		<g id="XMLID_1525_">
			<g id="XMLID_1556_">
				<path id="XMLID_1559_" style="fill:#E0AC89;" d="M78.959,364.162c-3.199-3.876-7.219-5.728-9.181-4.72
					c-1.232,0.633-1.889,1.683-2.208,2.378c0.765,0.607,1.487,1.227,2.157,1.828c2.505,2.25,6.762,8.186,17.387,12.327
					c5.058,0.294,9.822,0.363,12.25-0.157c0,0,2.361-0.914,5.777-2.259l0.285-2.023C90.29,372.61,82.159,368.038,78.959,364.162z"/>
			</g>
			<g id="XMLID_1484_">
				<path id="XMLID_1528_" style="fill:#E0AC89;" d="M58.511,361.919c2.551,2.4,6.903,8.829,18.395,13.243
					c3.1,0.3,6.724,0.61,10.21,0.813c-10.627-4.141-14.884-10.078-17.389-12.328c-3.282-2.947-7.789-6.359-12.804-6.415
					c-1.254-0.014-2.239,0.363-3.011,0.938C55.624,359.321,57.174,360.661,58.511,361.919z"/>
			</g>
			<path id="XMLID_1523_" style="fill:#EAB892;" d="M49.432,364.063c6.055-0.43,19.323,10.218,19.323,10.218
				s3.481,0.429,8.153,0.881c-11.493-4.414-15.845-10.844-18.396-13.243c-3.213-3.022-7.64-6.537-12.653-6.709
				c-5.013-0.172-5.874,6.021-5.874,6.021c1.424,1.27,3.574,3.601,5.062,5.21C45.886,365.225,47.239,364.219,49.432,364.063z"/>
			<path id="XMLID_1529_" style="fill:#9E7852;" d="M62.861,370.906c0,0,11.537-14.567,28.797-20.999
				c17.259-6.432,45.727,16.55,45.727,16.55l-12.101,11.748l-42.948,2.967C82.336,381.172,66.296,381.466,62.861,370.906z"/>
			<path id="XMLID_1443_" style="fill:#F7CBA4;" d="M194.861,387.791l-1.2,37.223c0,0-42.102-29.203-46.631-30.484
				c-4.529-1.281-44.362,1.876-48.35,1.314c-3.988-0.563-29.689-6.543-36.605-10.623c-5.578-3.29-14.117-10.27-17.213-12.848
				c-0.803-0.669-1.209-1.707-1.037-2.738c0.345-2.073,1.539-5.281,5.608-5.57c6.055-0.43,19.323,10.218,19.323,10.218
				s23.987,2.956,30.609,1.535c0,0,23.096-8.943,29.536-12.102c6.439-3.159,15.215-7.701,28.965,4.086
				C157.865,367.801,189.038,383.544,194.861,387.791z"/>
			<path id="XMLID_1445_" style="fill:#F7CBA4;" d="M93.113,367.324c-2.853,1.036-6.741,4.01-5.815,8.599
				c0.895,4.439,4.77,1.85,13.649,5.672c8.88,3.821,33.106,3.921,38.701,0.322c6.592-4.24,5.606-16.977-0.244-19.514
				c-5.85-2.538-17.82,1.981-26.471,7.825C112.932,370.227,96.723,366.014,93.113,367.324z"/>
			<g id="XMLID_1527_">
				<path id="XMLID_1585_" style="fill:#EAB892;" d="M141.018,363.458c-0.491-0.401-1.042-0.718-1.618-0.948
					c-0.589-0.167-1.209-0.398-1.819-0.44c-0.602-0.117-1.231-0.098-1.85-0.12c-0.621,0.004-1.244,0.05-1.863,0.106
					c-0.617,0.101-1.238,0.143-1.848,0.291c-0.611,0.131-1.224,0.242-1.825,0.421c-1.208,0.316-2.409,0.672-3.586,1.103
					c-1.18,0.417-2.348,0.875-3.498,1.375c-0.573,0.255-1.153,0.493-1.714,0.774c-0.561,0.28-1.141,0.521-1.695,0.818
					c-1.124,0.558-2.224,1.164-3.317,1.781c-1.091,0.621-2.161,1.279-3.216,1.959l-0.168,0.108l-0.175-0.049
					c-1.939-0.547-3.898-1.061-5.861-1.542l-2.946-0.728l-2.96-0.685c1.009,0.105,2.015,0.238,3.017,0.393
					c1.002,0.158,2.007,0.303,3.002,0.499c1.993,0.381,3.977,0.79,5.961,1.244l-0.343,0.059c1.053-0.719,2.121-1.415,3.212-2.075
					c1.098-0.648,2.214-1.265,3.35-1.845c0.561-0.303,1.144-0.564,1.719-0.84c0.573-0.28,1.166-0.518,1.751-0.773
					c1.175-0.496,2.365-0.964,3.584-1.349c0.603-0.211,1.219-0.385,1.836-0.555c0.611-0.186,1.237-0.327,1.864-0.456
					c0.622-0.151,1.26-0.233,1.892-0.335c0.629-0.118,1.278-0.131,1.913-0.201c0.642-0.025,1.286-0.039,1.928-0.01
					c0.643,0.062,1.283,0.107,1.918,0.281c0.653,0.11,1.209,0.376,1.818,0.608C140.062,362.609,140.574,363.009,141.018,363.458z"/>
			</g>
			<g id="XMLID_1524_">
				<path id="XMLID_1587_" style="fill:#EAB892;" d="M87.998,371.423c0,0-0.113,0.205-0.275,0.609
					c-0.161,0.402-0.354,1.016-0.427,1.816c-0.059,0.811-0.005,1.763,0.405,2.829c0.21,0.482,0.53,0.961,1.017,1.284
					c0.496,0.311,1.122,0.483,1.787,0.622c1.347,0.248,2.868,0.399,4.452,0.718c1.586,0.31,3.243,0.757,4.894,1.388
					c0.411,0.162,0.825,0.325,1.243,0.49c0.41,0.147,0.823,0.296,1.238,0.445c0.844,0.339,1.703,0.482,2.564,0.738
					c0.881,0.192,1.78,0.37,2.681,0.54c0.91,0.132,1.82,0.287,2.736,0.401c0.918,0.109,1.836,0.218,2.75,0.327
					c0.919,0.079,1.833,0.159,2.741,0.237c0.91,0.052,1.813,0.104,2.705,0.155c0.894,0.025,1.776,0.05,2.644,0.075
					c1.737,0.007,3.417,0.036,5.009-0.014c0.797-0.007,1.571-0.042,2.318-0.089c0.748-0.044,1.473-0.068,2.163-0.146
					c1.386-0.114,2.648-0.27,3.767-0.429c0.561-0.07,1.072-0.202,1.553-0.288c0.482-0.086,0.919-0.185,1.303-0.314
					c0.389-0.114,0.737-0.216,1.039-0.304c0.293-0.112,0.531-0.234,0.731-0.32c0.398-0.18,0.61-0.276,0.61-0.276
					s-0.203,0.113-0.585,0.324c-0.193,0.102-0.425,0.246-0.712,0.383c-0.298,0.11-0.641,0.237-1.024,0.379
					c-0.382,0.155-0.817,0.281-1.296,0.397c-0.479,0.116-0.991,0.282-1.55,0.386c-0.56,0.109-1.155,0.225-1.783,0.347
					c-0.63,0.108-1.298,0.178-1.993,0.276c-0.695,0.105-1.422,0.155-2.175,0.228c-0.752,0.076-1.531,0.14-2.333,0.176
					c-1.603,0.109-3.297,0.156-5.049,0.152c-0.876-0.014-1.767-0.028-2.668-0.043c-0.901-0.04-1.813-0.081-2.732-0.123
					c-1.837-0.118-3.702-0.276-5.562-0.506c-0.928-0.127-1.852-0.296-2.775-0.441c-0.918-0.184-1.829-0.376-2.734-0.585
					c-0.891-0.273-1.833-0.458-2.655-0.8c-0.427-0.16-0.852-0.319-1.274-0.477c-0.405-0.165-0.807-0.329-1.205-0.492
					c-1.607-0.617-3.193-1.128-4.735-1.486c-1.541-0.37-3.03-0.572-4.418-0.88c-0.689-0.176-1.373-0.37-1.94-0.776
					c-0.561-0.421-0.898-1.001-1.1-1.572c-0.346-1.079-0.361-2.159-0.243-2.958c0.118-0.821,0.38-1.423,0.569-1.815
					C87.87,371.617,87.998,371.423,87.998,371.423z"/>
			</g>
			<g id="XMLID_1526_">
				<path id="XMLID_1531_" style="fill:#A7C46E;" d="M101.246,321.296c0,0,6.212,6.248,10.987-2.481
					C112.233,318.815,104.182,313.179,101.246,321.296z"/>
				<path id="XMLID_1530_" style="fill:#A7C46E;" d="M92.212,315.84c0,0,1.971-9.835-9.31-8.818
					C82.902,307.022,82.675,318.208,92.212,315.84z"/>
				<path id="XMLID_1532_" style="fill:#A7C46E;" d="M87.53,327.825c0,0-8.124-2.22-7.925,7.287
					C79.605,335.112,88.961,335.95,87.53,327.825z"/>
				<path id="XMLID_1534_" style="fill:#A7C46E;" d="M102.17,320.73c-2.743,0.421-4.512,2.863-5.497,4.765
					c-0.626-2.946-2.266-8.549-5.264-10.82c0,0,3.462,7.448,3.405,12.757c-6.481-2.691-9.833,2.453-9.833,2.453
					s4.781-4.002,8.704-1.225c3.046,2.156,2.159,15.318,1.609,21.099c-0.14,1.472,0.992,2.756,2.47,2.797l0,0
					c1.484,0.042,2.7-1.186,2.622-2.668c-0.274-5.242-1.719-15.112-2.393-19.639C97.167,324.693,102.17,320.73,102.17,320.73z"/>
			</g>
		</g>
		<path id="XMLID_1533_" style="fill:#A7C46E;" d="M56.996,328.415c0,0,6.31-14.307-11.204-16.555
			C45.792,311.86,41.682,328.811,56.996,328.415z"/>
		<path id="XMLID_1578_" style="fill:#A7C46E;" d="M140.898,327.884c0,0,3.562-15.226,18.907-6.49
			C159.804,321.395,152.895,337.409,140.898,327.884z"/>
		<path id="XMLID_1571_" style="fill:#A7C46E;" d="M46.232,405.94c0,0-12.666-9.17-18.536,7.483
			C27.695,413.422,43.407,420.996,46.232,405.94z"/>
		<path id="XMLID_1574_" style="fill:#A7C46E;" d="M46.954,337.948c0,0-0.182-10.367-11.349-6.848
			C35.604,331.1,37.846,342.447,46.954,337.948z"/>
		<path id="XMLID_1577_" style="fill:#A7C46E;" d="M122.826,310.646c0,0,10.348,0.663,7.75-10.754
			C130.576,299.892,119.085,301.202,122.826,310.646z"/>
		<path id="XMLID_1576_" style="fill:#A7C46E;" d="M30.467,382.808c0,0-4.734-9.225-13.206-1.143
			C17.261,381.664,24.275,390.86,30.467,382.808z"/>
		<path id="XMLID_1579_" style="fill:#A7C46E;" d="M141.091,409.354c0,0-3.122,9.888,8.585,10.099
			C149.676,419.453,151.156,407.983,141.091,409.354z"/>
	</g>
	<g id="XMLID_1544_">
		<g id="XMLID_1520_">
			<path id="XMLID_13_" style="fill:#F7CBA4;" d="M297.775,128.617c0,0,24.513,0.752,29.626,0
				c5.113-0.752,3.158-6.316,10.376-12.181c7.219-5.865,10.226-10.677,10.377-18.046c0,0,1.805-2.857,5.564-0.752
				c3.76,2.105,2.556,11.441,0.752,15.27c-1.805,3.829-2.406,9.393,4.512,11.048c6.918,1.654,12.933,1.203,18.046,1.504
				c5.113,0.301,20.753-8.271,24.362-8.271c3.609,0,4.361,3.008,4.06,4.361c-0.301,1.354-9.925,6.918-15.49,9.925
				c-5.564,3.008-18.046,8.271-22.106,10.076c-4.06,1.805-30.679,6.617-33.987,7.369c-3.308,0.752-36.092,4.512-36.092,4.512
				V128.617z"/>
			<path id="XMLID_1035_" style="fill:#E0AC89;" d="M372.416,125.319l10.216-6.819c0,0,1.793-1.071,1.894-1.773
				c0.1-0.702-0.902-2.907-4.01-3.409c-3.108-0.501-9.224,5.614-13.399,8.221c-1.697,1.059-3.891,2.064-5.898,2.884
				C365.281,125.165,369.013,125.256,372.416,125.319z"/>
			<path id="XMLID_1037_" style="fill:#E0AC89;" d="M377.028,125.459c0.445,0.026,0.973-0.018,1.562-0.115l11.073-7.392
				c0,0,1.793-1.071,1.894-1.773c0.1-0.702-0.902-2.907-4.01-3.409c-3.108-0.501-9.224,5.614-13.399,8.221
				c-2.582,1.612-6.316,3.098-8.79,3.998C369.663,125.396,373.554,125.255,377.028,125.459z"/>
			<path id="XMLID_1040_" style="fill:#EAB892;" d="M377.028,125.459c4.625,0.272,17.864-6.716,23.019-8.051l0.001,0
				c0,0,1.793-1.072,1.894-1.773c0.1-0.702-0.902-2.908-4.01-3.409c-3.108-0.501-9.224,5.614-13.399,8.221
				c-4.176,2.607-11.366,4.886-11.366,4.886l0.001,0C374.507,125.358,375.794,125.387,377.028,125.459z"/>
			<rect id="XMLID_9_" x="294.166" y="126.258" style="fill:#F7F7F7;" width="19.249" height="29.736"/>
			<rect id="XMLID_1444_" x="294.166" y="141.126" style="fill:#DEE0E0;" width="19.249" height="14.868"/>
		</g>
		<g id="XMLID_1522_">
			<path id="XMLID_1441_" style="fill:#F7CBA4;" d="M457.835,80.531c0,0-23.585-6.723-28.727-7.244
				c-5.142-0.521-4.607,5.352-13.04,9.274c-8.433,3.922-12.526,7.853-14.474,14.961c0,0-2.448,2.329-5.579-0.631
				c-3.131-2.961,0.318-11.718,3.004-14.99c2.686-3.272,4.63-8.52-1.673-11.815c-6.303-3.296-12.246-4.329-17.131-5.871
				c-4.884-1.542-22.146,2.946-25.645,2.063c-3.5-0.882-3.493-3.983-2.871-5.222c0.623-1.239,11.316-4.281,17.446-5.837
				c6.131-1.556,19.521-3.608,23.899-4.365c4.378-0.757,31.365,1.085,34.757,1.165c3.392,0.08,36.1,4.45,36.1,4.45L457.835,80.531z"
				/>
			<path id="XMLID_1429_" style="fill:#E0AC89;" d="M384.653,65.479l-11.573,4.115c0,0-2.001,0.6-2.27,1.256s0.164,3.04,3.055,4.286
				c2.891,1.246,10.316-3.189,15.003-4.695c1.904-0.612,4.277-1.05,6.424-1.355C391.534,67.373,387.937,66.373,384.653,65.479z"/>
			<path id="XMLID_1428_" style="fill:#E0AC89;" d="M380.215,64.215c-0.425-0.134-0.948-0.22-1.542-0.27l-12.544,4.46
				c0,0-2.001,0.6-2.27,1.256c-0.269,0.656,0.164,3.04,3.055,4.286c2.891,1.246,10.316-3.189,15.003-4.695
				c2.898-0.932,6.882-1.46,9.501-1.728C387.342,66.077,383.534,65.263,380.215,64.215z"/>
			<path id="XMLID_1426_" style="fill:#EAB892;" d="M380.215,64.215c-4.418-1.395-18.964,2.144-24.289,2.179l-0.001,0
				c0,0-2.001,0.601-2.27,1.257c-0.269,0.656,0.164,3.04,3.055,4.286c2.891,1.246,10.316-3.189,15.003-4.695
				c4.686-1.507,12.215-1.959,12.215-1.959l-0.001,0C382.636,64.93,381.394,64.588,380.215,64.215z"/>
			
				<rect id="XMLID_1425_" x="445.436" y="52.063" transform="matrix(-0.9696 -0.2445 0.2445 -0.9696 879.9441 243.0948)" style="fill:#F7F7F7;" width="19.249" height="29.736"/>
			
				<rect id="XMLID_1521_" x="443.618" y="66.706" transform="matrix(0.9696 0.2445 -0.2445 0.9696 31.884 -108.569)" style="fill:#DEE0E0;" width="19.249" height="14.868"/>
		</g>
		<g id="XMLID_1553_">
			<path id="XMLID_1555_" style="fill:#F27272;" d="M389.704,81.896c-4.433-4.433-11.62-4.433-16.053,0
				c-4.433-4.433-11.62-4.433-16.053,0c-4.433,4.433-4.433,11.62,0,16.053l16.053,16.053l16.053-16.053
				C394.137,93.516,394.137,86.329,389.704,81.896z"/>
		</g>
		<g id="XMLID_1546_">
			<path id="XMLID_1547_" style="fill:#F27272;" d="M331.382,86.194c-1.805-0.577-3.737,0.418-4.314,2.223
				c-1.805-0.578-3.737,0.418-4.314,2.223c-0.578,1.805,0.418,3.737,2.223,4.314l6.537,2.092l2.092-6.537
				C334.182,88.703,333.187,86.772,331.382,86.194z"/>
		</g>
		<g id="XMLID_1549_">
			<path id="XMLID_1550_" style="fill:#F27272;" d="M427.535,108.03c0.439-1.844-0.7-3.694-2.544-4.133
				c0.439-1.844-0.7-3.694-2.544-4.133c-1.844-0.439-3.694,0.7-4.133,2.544l-1.589,6.677l6.677,1.589
				C425.246,111.013,427.097,109.874,427.535,108.03z"/>
		</g>
		<g id="XMLID_1551_">
			<path id="XMLID_1552_" style="fill:#F27272;" d="M421.518,90.469c-0.504-0.906-1.646-1.232-2.552-0.729
				c-0.504-0.906-1.646-1.232-2.552-0.729c-0.906,0.504-1.232,1.646-0.729,2.552l1.823,3.281l3.281-1.823
				C421.695,92.518,422.021,91.375,421.518,90.469z"/>
		</g>
		<g id="XMLID_1554_">
			<path id="XMLID_1568_" style="fill:#F27272;" d="M343.008,69.739c-0.504-0.906-1.646-1.232-2.552-0.729
				c-0.503-0.906-1.646-1.232-2.552-0.729s-1.232,1.646-0.729,2.552l1.823,3.281l3.281-1.823
				C343.185,71.787,343.511,70.645,343.008,69.739z"/>
		</g>
	</g>
	<path id="XMLID_12_" style="fill:none;stroke:#AFAFAF;stroke-width:3;stroke-miterlimit:10;" d="M74.962,282.648
		C73,272.064,71.975,261.152,71.975,250c0-31.864,8.371-61.773,23.035-87.647"/>
	<path id="XMLID_8_" style="fill:none;stroke:#AFAFAF;stroke-width:3;stroke-miterlimit:10;" d="M274.565,426.344
		c-8.03,1.108-16.231,1.681-24.565,1.681c-13.424,0-26.502-1.486-39.076-4.302"/>
	<path id="XMLID_6_" style="fill:none;stroke:#AFAFAF;stroke-width:3;stroke-miterlimit:10;" d="M393.466,144.574
		c21.724,29.512,34.559,65.97,34.559,105.426c0,10.813-0.964,21.402-2.811,31.684"/>
	<path id="XMLID_4_" style="fill:none;stroke:#AFAFAF;stroke-width:3;stroke-miterlimit:10;" d="M218.058,74.833
		c10.363-1.877,21.038-2.858,31.942-2.858c23.69,0,46.3,4.628,66.974,13.028"/>
	<path id="XMLID_19_" style="fill:none;stroke:#AFAFAF;stroke-width:2;stroke-miterlimit:10;stroke-dasharray:12;" d="
		M46.227,288.603C43.872,276.095,42.64,263.191,42.64,250c0-27.406,5.317-53.569,14.974-77.516"/>
	<path id="XMLID_17_" style="fill:none;stroke:#AFAFAF;stroke-width:2;stroke-miterlimit:10;stroke-dasharray:12;" d="
		M299.612,451.387C283.716,455.29,267.1,457.36,250,457.36c-22.675,0-44.5-3.64-64.923-10.366
		c-11.061-3.643-21.71-8.192-31.861-13.559"/>
	<path id="XMLID_7_" style="fill:none;stroke:#AFAFAF;stroke-width:2;stroke-miterlimit:10;stroke-dasharray:12;" d="
		M424.297,137.622c20.92,32.379,33.062,70.961,33.062,112.378c0,6.042-0.258,12.023-0.765,17.934"/>
	<path id="XMLID_2_" style="fill:none;stroke:#AFAFAF;stroke-width:2;stroke-miterlimit:10;stroke-dasharray:12;" d="
		M235.426,43.145c4.814-0.334,9.674-0.504,14.574-0.504c15.926,0,31.433,1.795,46.33,5.195"/>
	
</g>

</svg>
